# xmcd
#
# Track frame offsets:
#	150
#	13687
#	25862
#	36125
#	49775
#	60512
#	71250
#	81287
#	92737
#	104637
#	119762
#	132362
#	143225
#	157100
#	167412
#	177662
#
# Disc length: 2582
#
# Revision: 1
# Processed by: cddbd v1.5.1PL0 Copyright (c) Steve Scherf et al.
# Submitted via: audiograbber 1.83.01
# Normalized: r0:DSETVAR1
#
DISCID=df0a1410
DTITLE=Various Artist - Teenage Rebels - Beautiful Sunday
DYEAR=1900
DGENRE=Pop
TTITLE0=Daniel Boone - Beautiful Sunday
TTITLE1=John Kincade - Dreams Are Ten a Penny
TTITLE2=David Garrick - Dear Mrs. Applebee
TTITLE3=Shocking Blue - Venus
TTITLE4=Move - Flowers In the Rain
TTITLE5=Sandie Shaw - Puppet On a String
TTITLE6=Unit Four Plus Two - Concrete And clay
TTITLE7=Chris Andrews - Yesterday Man
TTITLE8=Tremeloes - My Little Lady
TTITLE9=Sweet Sensation - Sad Sweet Dreamer
TTITLE10=Mungo Jerry - Alright, Alright, Alright
TTITLE11=Melanie - Brand New Key
TTITLE12=Vanity Fair - Hitchin' a Ride
TTITLE13=Chris Montez - Let's Dance
TTITLE14=1910 Fruitgum Company - Simon Says
TTITLE15=The Kinks - Sunny Afternoon
EXTD=Zillion Records 1992
EXTT0=
EXTT1=
EXTT2=
EXTT3=
EXTT4=
EXTT5=
EXTT6=
EXTT7=
EXTT8=
EXTT9=
EXTT10=
EXTT11=
EXTT12=
EXTT13=
EXTT14=
EXTT15=
PLAYORDER=
